<svg xmlns="http://www.w3.org/2000/svg" width="256" height="256" viewBox="0 0 100 100"><rect width="100" height="100" rx="20" fill="#7d6ee7"></rect><path fill="#fff" d="M39.31 71.45L35.80 61.08L14.90 61.08Q14.35 62.64 13.73 64.47Q13.11 66.30 12.52 68.06Q11.94 69.81 11.39 71.33Q10.84 72.85 10.53 73.87L10.53 73.87Q9.44 74.34 7.96 74.34L7.96 74.34Q6.71 74.34 5.74 73.67Q4.76 73.01 4.76 71.53L4.76 71.53Q4.76 70.83 4.99 70.08Q5.23 69.34 5.54 68.49L5.54 68.49Q6.71 65.21 8.54 60.06Q10.38 54.91 12.52 49.10Q14.67 43.29 16.89 37.40Q19.11 31.51 20.98 26.83L20.98 26.83Q21.61 26.52 22.86 26.21Q24.10 25.90 25.43 25.90L25.43 25.90Q26.99 25.90 28.43 26.37Q29.88 26.83 30.27 27.93L30.27 27.93Q32.14 32.45 34.28 38.26Q36.43 44.07 38.61 50.16Q40.80 56.24 42.79 62.13Q44.77 68.02 46.33 72.78L46.33 72.78Q45.71 73.48 44.85 73.91Q43.99 74.34 42.90 74.34L42.90 74.34Q41.42 74.34 40.64 73.67Q39.86 73.01 39.31 71.45L39.31 71.45ZM25.66 31.20L25.35 31.20Q24.49 33.54 23.40 36.54Q22.31 39.55 21.14 42.82Q19.97 46.10 18.80 49.45Q17.63 52.81 16.62 55.85L16.62 55.85L34.17 55.85Q33.00 52.34 31.75 48.79Q30.50 45.24 29.37 41.97Q28.24 38.69 27.26 35.92Q26.29 33.15 25.66 31.20L25.66 31.20ZM88.77 49.45L88.77 49.45Q88.77 44.46 87.25 40.91Q85.72 37.36 83.11 35.10Q80.50 32.84 77.03 31.79Q73.56 30.73 69.58 30.73L69.58 30.73Q67.08 30.73 65.25 30.89Q63.42 31.05 61.86 31.36L61.86 31.36L61.86 68.49Q63.73 68.95 65.87 69.11Q68.02 69.27 70.28 69.27L70.28 69.27Q79.48 69.27 84.13 64.27Q88.77 59.28 88.77 49.45ZM95.24 49.45L95.24 49.45Q95.24 55.85 93.49 60.57Q91.73 65.29 88.49 68.41Q85.26 71.53 80.65 73.05Q76.05 74.57 70.36 74.57L70.36 74.57Q67.86 74.57 64.74 74.37Q61.62 74.18 58.81 73.32L58.81 73.32Q55.54 72.31 55.54 69.73L55.54 69.73L55.54 29.64Q55.54 28.39 56.16 27.73Q56.79 27.07 58.11 26.68L58.11 26.68Q60.53 25.90 63.57 25.66Q66.61 25.43 69.66 25.43L69.66 25.43Q75.35 25.43 80.07 26.95Q84.79 28.47 88.14 31.47Q91.50 34.48 93.37 38.96Q95.24 43.45 95.24 49.45Z"></path></svg>